<?xml version="1.0"?>
<svg xmlns="http://www.w3.org/2000/svg" id="Layer_5" enable-background="new 0 0 64 64" height="512px" viewBox="0 0 64 64" width="512px"><g><path d="m29.016 35v-5.995c0-6.2-4.054-11.464-9.647-13.302 2.192-1.428 3.647-3.897 3.647-6.703 0-4.411-3.589-8-8-8s-8 3.589-8 8c0 2.805 1.454 5.272 3.644 6.701-5.593 1.835-9.65 7.096-9.654 13.293l-.003 3.002c-.001 1.336.519 2.593 1.463 3.538.945.945 2.2 1.465 3.535 1.466l.015 12h1.985l.014 10c0 2.206 1.794 4 4 4 1.201 0 2.266-.542 3-1.382.734.84 1.799 1.382 3 1.382 2.206 0 4-1.794 4-4.001l-.014-9.999h2.015l-.006-9h.005c2.757 0 5.001-2.243 5.001-5zm-14.153-14.642-2.586-3.032c.88-.206 1.792-.326 2.734-.326.877 0 1.729.1 2.553.279zm-5.847-11.358c0-3.309 2.691-6 6-6s6 2.691 6 6-2.691 6-6 6-6-2.691-6-6zm-6.013 22.998.003-3.002c.004-4.914 2.979-9.142 7.22-10.994l3.305 3.876-1.531 1.746v1.376h-2v5h-5v2h8.5c.827 0 1.5.673 1.5 1.5s-.673 1.5-1.5 1.5h-7.497c-.802 0-1.556-.312-2.122-.879-.567-.568-.879-1.322-.878-2.123zm8.997 5.002h1.5c1.93 0 3.5-1.57 3.5-3.5s-1.57-3.5-3.5-3.5h-1.5v-3h6v12h-6zm.016 24c-1.103 0-2-.897-2-2.001l-.015-9.999h4.014v10c.001 1.103-.897 2-1.999 2zm8-2c0 1.103-.897 2-2 2s-2-.897-2-2v-10h3.986zm3.984-36h-2l.015 24h-14l-.014-10h1.999v4h10v-16h-6v-.624l5.65-6.442c4.322 1.818 7.366 6.095 7.366 11.071v5.995c0 1.654-1.346 3-3 3h-.006z" data-original="#000000" class="active-path" data-old_color="#000000" fill="#FFFFFF"/><path d="m48.998 22.998 8.083-.011c3.308 0 5.999-2.691 6-6 0-1.575-.632-3.074-1.779-4.221-.972-.971-2.195-1.567-3.502-1.729-.853-2.968-3.557-5.049-6.719-5.049-.621 0-1.232.081-1.825.242-1.453-3.173-4.622-5.242-8.175-5.242-4.963 0-9 4.038-9 9 0 .362.025.723.068 1.082-1.227.198-2.371.779-3.289 1.697-1.148 1.148-1.78 2.647-1.779 4.221 0 3.309 2.691 6 5.999 6l7.921.01c.551.001.999.45.999 1v5.002h-5c-1.654 0-3 1.346-3 3s1.346 3 3 3h1v3.754c0 .644-.167 1.281-.481 1.841l-7.779 13.829c-.484.859-.74 1.835-.74 2.822 0 3.172 2.582 5.754 5.755 5.754h20.49c3.173 0 5.755-2.582 5.755-5.754 0-.987-.256-1.962-.739-2.821l-7.779-13.829c-.315-.561-.482-1.198-.482-1.842v-3.754h1c1.654 0 3-1.346 3-3s-1.346-3-3-3h-5v-5.002c0-.551.448-1 .998-1zm6.247 38.002h-20.49c-2.07 0-3.755-1.684-3.755-3.754 0-.644.167-1.281.481-1.841l7.779-13.829c.484-.859.74-1.835.74-2.822v-3.754h2v12h2v-12h2v13c0 1.654 1.346 3 3 3h2c.552 0 1 .449 1 1s-.448 1-1 1h-14c-1.654 0-3 1.346-3 3s1.346 3 3 3h21.544c-.632 1.184-1.866 2-3.299 2zm-4.506-19.424 7.779 13.829c.274.489.429 1.036.466 1.595h-21.984c-.552 0-1-.449-1-1s.448-1 1-1h14c1.654 0 3-1.346 3-3s-1.346-3-3-3h-2c-.552 0-1-.449-1-1v-13h2v3.754c0 .987.256 1.963.739 2.822zm3.261-9.576c0 .551-.448 1-1 1h-16c-.552 0-1-.449-1-1s.448-1 1-1h16c.552 0 1 .449 1 1zm-10-3v-5.003c0-1.651-1.344-2.997-2.996-3l-7.923-.01c-2.206 0-4-1.794-4-4 0-1.04.423-2.037 1.193-2.806.77-.77 1.766-1.193 2.806-1.193h.001c2.206 0 4 1.794 4 4h2c0-2.933-2.117-5.377-4.903-5.895-.058-.365-.097-.733-.097-1.105 0-3.86 3.141-7 7-7 3.03 0 5.701 1.936 6.646 4.816l.343 1.045 1.009-.441c.637-.279 1.31-.42 2.002-.42 2.096 0 3.904 1.284 4.641 3.161-2.655.618-4.641 2.998-4.641 5.839h2c0-2.206 1.794-4 3.999-4h.001c1.04 0 2.036.424 2.806 1.193.771.77 1.194 1.767 1.194 2.806-.001 2.206-1.795 4-4.001 4l-8.084.011c-1.652.002-2.996 1.348-2.996 3v5.002z" data-original="#000000" class="active-path" data-old_color="#000000" fill="#FFFFFF"/><path d="m42 49h2v2h-2z" data-original="#000000" class="active-path" data-old_color="#000000" fill="#FFFFFF"/><path d="m41 5v2c1.654 0 3 1.346 3 3h2c0-2.757-2.243-5-5-5z" data-original="#000000" class="active-path" data-old_color="#000000" fill="#FFFFFF"/></g> </svg>
